<svg width="91" height="91" viewBox="0 0 91 91" fill="none" xmlns="http://www.w3.org/2000/svg">
<path d="M64.7439 13.205H64.7787C65.5208 13.205 66.1221 12.6037 66.1221 11.8623C66.1221 11.1208 65.5208 10.5195 64.7787 10.5195H64.7439C64.0025 10.5195 63.4012 11.1208 63.4012 11.8623C63.4012 12.6037 64.0025 13.205 64.7439 13.205Z" fill="#3C3C3C"/>
<path d="M59.0439 13.205H59.078C59.8201 13.205 60.4214 12.6037 60.4214 11.8623C60.4214 11.1208 59.8201 10.5195 59.078 10.5195H59.0439C58.3018 10.5195 57.7005 11.1208 57.7005 11.8623C57.7005 12.6037 58.3018 13.205 59.0439 13.205Z" fill="#3C3C3C"/>
<path d="M53.3432 13.2301H53.3773C54.1194 13.2301 54.7207 12.6289 54.7207 11.8874C54.7207 11.1452 54.1194 10.5439 53.3773 10.5439H53.3432C52.6011 10.5439 51.9998 11.1452 51.9998 11.8874C51.9998 12.6289 52.6011 13.2301 53.3432 13.2301Z" fill="#3C3C3C"/>
<path d="M42.1015 11.8874C42.1015 11.1452 41.5003 10.5439 40.7588 10.5439H11.6742C10.9321 10.5439 10.3308 11.1452 10.3308 11.8874C10.3308 12.6289 10.9321 13.2301 11.6742 13.2301H40.7588C41.5003 13.2301 42.1015 12.6289 42.1015 11.8874Z" fill="#3C3C3C"/>
<path d="M11.9825 35.5421H15.7642C16.0697 35.5421 16.3252 35.4414 16.5307 35.2408C16.7355 35.0401 16.839 34.7971 16.839 34.5104C16.839 34.3577 16.8098 34.2195 16.7529 34.0952C16.6952 33.971 16.6189 33.8613 16.5238 33.7655C16.3037 33.5558 16.051 33.4503 15.7642 33.4503H13.1281V31.4021H15.4351C15.7496 31.4021 16.01 31.2994 16.2155 31.0939C16.421 30.8884 16.5238 30.6426 16.5238 30.3559C16.5238 30.0789 16.4182 29.8359 16.2086 29.6255C15.9982 29.4158 15.7399 29.3103 15.4351 29.3103H13.1142V27.3337H15.6927C15.9697 27.3337 16.2134 27.2282 16.4231 27.0185C16.6237 26.7894 16.7244 26.536 16.7244 26.259C16.7244 25.9729 16.6237 25.7271 16.4231 25.5216C16.2231 25.3161 15.9794 25.2134 15.6927 25.2134H11.9686C11.6437 25.2134 11.3667 25.3328 11.1376 25.5716C10.9078 25.8105 10.7939 26.0875 10.7939 26.4027V34.3667C10.7939 34.7013 10.9078 34.9804 11.1376 35.2047C11.3667 35.4296 11.6479 35.5421 11.9825 35.5421Z" fill="#3C3C3C"/>
<path d="M19.8542 35.656C20.236 35.656 20.5561 35.4699 20.8144 35.0978L23.0777 31.9319L25.3265 35.0978C25.6132 35.4699 25.9374 35.656 26.3005 35.656C26.4727 35.656 26.6248 35.6275 26.7588 35.5706C26.8927 35.513 27.017 35.4324 27.1316 35.3269C27.3607 35.0978 27.4752 34.8354 27.4752 34.5389C27.4752 34.2529 27.3892 33.9946 27.217 33.7655L24.4239 29.9983L26.7011 26.9755C26.8733 26.7276 26.9594 26.4791 26.9594 26.2305C26.9594 25.9153 26.84 25.6459 26.6012 25.4217C26.3623 25.1974 26.0902 25.085 25.7847 25.085C25.3931 25.085 25.0585 25.2856 24.7822 25.6862L23.077 28.1217L21.3726 25.6862C21.0858 25.2856 20.7512 25.085 20.3693 25.085C20.0451 25.085 19.7681 25.1995 19.539 25.4286C19.3092 25.6577 19.1946 25.925 19.1946 26.2305C19.1946 26.5172 19.2759 26.7658 19.4383 26.9755L21.7301 29.9983L18.9225 33.7655C18.7503 33.9946 18.6649 34.2529 18.6649 34.5389C18.6649 34.8451 18.7836 35.1075 19.0224 35.3269C19.262 35.5463 19.539 35.656 19.8542 35.656Z" fill="#3C3C3C"/>
<path d="M30.1503 35.699C30.7328 35.699 31.1056 35.4324 31.2681 34.8971L31.6548 33.5933H35.6226L36.0384 34.8971C36.2196 35.4227 36.573 35.6851 37.0979 35.6851C37.4131 35.6851 37.6804 35.5893 37.9005 35.3984C38.1296 35.179 38.2442 34.945 38.2442 34.6965C38.2442 34.4486 38.206 34.2188 38.1296 34.0091L35.322 26.3735C35.0068 25.5147 34.4479 25.0842 33.646 25.0842C32.8337 25.0842 32.2706 25.514 31.9554 26.3735L29.1047 33.9946C29.0374 34.166 29.004 34.3577 29.004 34.5673C29.004 34.8825 29.1137 35.1505 29.3338 35.3699C29.5532 35.5893 29.8254 35.699 30.1503 35.699ZM33.646 27.4913L34.9207 31.516L32.3137 31.5021L33.646 27.4913Z" fill="#3C3C3C"/>
<path d="M41.5135 35.6704C42.1814 35.6704 42.5688 35.3031 42.6736 34.5672L43.4901 28.8803L45.2091 34.7393C45.4098 35.36 45.8062 35.6704 46.3984 35.6704C46.7511 35.6704 47.0122 35.6037 47.1788 35.4697C47.3461 35.3364 47.4822 35.0927 47.587 34.7393L49.306 28.8803L50.1371 34.5672C50.2516 35.3031 50.6432 35.6704 51.3118 35.6704C51.6457 35.6704 51.9228 35.5579 52.1428 35.3336C52.3622 35.1094 52.4726 34.8206 52.4726 34.4672L52.4435 34.2381L51.1112 26.3303C51.0445 25.9776 50.8654 25.6839 50.5745 25.4499C50.2829 25.216 49.951 25.0986 49.5782 25.0986C48.7853 25.0986 48.275 25.4853 48.0459 26.2588L46.3984 31.7165L44.7794 26.2588C44.5315 25.4853 44.0205 25.0986 43.2471 25.0986C42.8646 25.0986 42.5257 25.218 42.23 25.4569C41.9335 25.6957 41.7572 25.9866 41.6996 26.3303L40.3672 34.2381C40.3485 34.286 40.3388 34.3623 40.3388 34.4672C40.3388 34.8108 40.4485 35.0976 40.6686 35.3267C40.8879 35.5558 41.1698 35.6704 41.5135 35.6704V35.6704Z" fill="#3C3C3C"/>
<path d="M10.8633 40.6845C10.8633 41.4267 11.4646 42.0279 12.2067 42.0279H40.2256C40.9678 42.0279 41.569 41.4267 41.569 40.6845C41.569 39.943 40.9678 39.3418 40.2256 39.3418H12.2067C11.4653 39.3418 10.8633 39.943 10.8633 40.6845Z" fill="#3C3C3C"/>
<path d="M40.2263 47.1184H12.2067C11.4646 47.1184 10.8633 47.7197 10.8633 48.4611C10.8633 49.2026 11.4646 49.8046 12.2067 49.8046H40.2256C40.9678 49.8046 41.569 49.2026 41.569 48.4611C41.569 47.7197 40.9678 47.1184 40.2263 47.1184Z" fill="#3C3C3C"/>
<path d="M88.8672 25.0029C87.5391 23.7373 85.7964 23.0631 83.9469 23.1083C82.1022 23.152 80.3887 23.9081 79.1217 25.2369L77.6977 26.7351C77.6977 26.7351 77.697 26.7351 77.697 26.7358L75.8065 28.7208V9.66292C75.8065 7.17672 73.7813 5.1543 71.2923 5.1543H4.50862C2.02312 5.1543 0 7.17672 0 9.66292V81.51C0 83.999 2.02312 86.0235 4.50862 86.0235H71.293C73.782 86.0235 75.8065 83.999 75.8065 81.51V48.7055L75.9933 48.5097L87.68 36.2412C87.6974 36.2238 87.7119 36.2044 87.7279 36.1863L89.1005 34.7471C91.7214 31.9957 91.6172 27.6252 88.8672 25.0029V25.0029ZM73.1204 81.51C73.1204 82.5174 72.3004 83.3373 71.293 83.3373H4.50862C3.50401 83.3373 2.68615 82.5174 2.68615 81.51V19.2807H33.9285C34.6707 19.2807 35.272 18.6795 35.272 17.9373C35.272 17.1958 34.6707 16.5946 33.9285 16.5946H2.68615V9.66292C2.68615 8.6583 3.50401 7.84045 4.50862 7.84045H71.293C72.3004 7.84045 73.1204 8.6583 73.1204 9.66292V16.5946H39.95C39.2078 16.5946 38.6066 17.1958 38.6066 17.9373C38.6066 18.6795 39.2078 19.2807 39.95 19.2807H73.1204V31.5423L51.4284 54.3229H38.6975C37.9553 54.3229 37.3541 54.9241 37.3541 55.6656C37.3541 56.4071 37.9553 57.0083 38.6975 57.0083H48.8707L48.5291 57.368C48.5243 57.3728 48.5201 57.3784 48.5153 57.3839C48.4958 57.4055 48.4764 57.4277 48.4583 57.4499C48.4472 57.4638 48.4361 57.4777 48.4257 57.4915C48.4111 57.511 48.3972 57.5311 48.3833 57.5519C48.3708 57.5707 48.359 57.5901 48.3472 57.6096C48.3375 57.6262 48.3278 57.6429 48.3188 57.6603C48.3056 57.6846 48.2938 57.7089 48.282 57.7332C48.2785 57.7408 48.2743 57.7477 48.2716 57.7547L44.2184 67.0052C44.117 67.2426 44.042 67.4836 43.9879 67.7252H17.2708C16.5293 67.7252 15.9281 68.3264 15.9281 69.0686C15.9281 69.8101 16.5293 70.4113 17.2708 70.4113H44.4044C44.5482 70.646 44.7203 70.8647 44.9217 71.0625C45.5743 71.702 46.4262 72.0317 47.3336 72.0317C47.8946 72.0317 48.4764 71.9054 49.045 71.6478C49.0589 71.6416 49.0728 71.6346 49.0866 71.6284L58.1303 67.151C58.1414 67.1454 58.1511 67.1385 58.1615 67.1336C58.1823 67.1225 58.2025 67.1114 58.2226 67.0989C58.242 67.0878 58.2615 67.0753 58.2795 67.0628C58.2969 67.0517 58.3143 67.0399 58.3309 67.0274C58.351 67.0128 58.3705 66.9976 58.3892 66.9816C58.4038 66.9698 58.417 66.958 58.4309 66.9462C58.451 66.9281 58.4705 66.9094 58.4892 66.8906C58.4948 66.8844 58.5017 66.8795 58.5073 66.8733L62.2522 62.9409V74.8922C62.2522 75.1372 62.0453 75.3441 61.8002 75.3441H14.0063C13.7591 75.3441 13.5495 75.1372 13.5495 74.8922V57.4603C13.5495 57.2152 13.7585 57.0083 14.0063 57.0083H33.0065C33.7487 57.0083 34.35 56.4071 34.35 55.6656C34.35 54.9241 33.7487 54.3229 33.0065 54.3229H14.0063C12.2734 54.3229 10.8633 55.7302 10.8633 57.4603V74.8922C10.8633 76.6223 12.2734 78.0303 14.0063 78.0303H61.8002C63.5303 78.0303 64.9383 76.623 64.9383 74.8922V60.1201L73.1204 51.527V81.51ZM46.6831 68.0737L47.0823 67.1642L48.7819 68.7818L47.9182 69.2095C47.4579 69.4122 47.0517 69.3886 46.8018 69.1443C46.6053 68.9512 46.472 68.5666 46.6831 68.0737ZM51.3451 67.5127L48.2285 64.5468L49.9628 60.5887L55.2185 65.5951L51.3451 67.5127ZM74.0486 46.6574C74.0479 46.6574 74.0479 46.6574 74.0486 46.6574L57.4888 64.0483L51.4 58.2476L52.9426 56.6279C52.9607 56.6105 52.9781 56.5918 52.9947 56.573L75.4108 33.0322C75.4142 33.0288 75.417 33.0253 75.4212 33.0211L78.7169 29.5602L84.8085 35.3608L74.0486 46.6574ZM87.1565 32.8941L86.6594 33.4141L80.5679 27.6141L81.067 27.0892C81.8377 26.2804 82.8833 25.8208 84.0108 25.7937C85.141 25.768 86.2054 26.177 87.0135 26.9476C88.6916 28.5472 88.7554 31.2153 87.1565 32.8941V32.8941Z" fill="#3C3C3C"/>
<path d="M15.9281 62.7665C15.9281 63.508 16.5293 64.1092 17.2708 64.1092H37.9671C38.7093 64.1092 39.3106 63.508 39.3106 62.7665C39.3106 62.0243 38.7093 61.4231 37.9671 61.4231H17.2708C16.5293 61.4231 15.9281 62.0243 15.9281 62.7665Z" fill="#3C3C3C"/>
</svg>
