<svg width="84" height="99" viewBox="0 0 84 99" fill="none" xmlns="http://www.w3.org/2000/svg">
<path d="M33.2843 0.010498C33.36 0.217523 33.547 0.115174 33.68 0.145413C36.8577 0.863024 38.8252 2.86815 39.6913 6.00726C39.8198 6.47248 39.9758 6.58879 40.4473 6.58879C47.1376 6.56863 53.8295 6.56436 60.5229 6.57599C62.9836 6.57599 64.608 8.24266 64.608 10.7409C64.608 27.2161 64.608 43.6905 64.608 60.1642V60.8539C63.805 60.5328 63.0444 60.2212 62.2793 59.9374C61.9431 59.8129 62.0865 59.5501 62.0865 59.3558C62.0774 54.878 62.0747 50.4006 62.0785 45.9236C62.0785 34.1774 62.0785 22.4305 62.0785 10.6828C62.0785 9.65811 61.5726 9.13473 60.5746 9.13473C56.5216 9.13473 52.4686 9.14753 48.4144 9.12776C47.9189 9.12776 47.8408 9.28128 47.8408 9.74302C47.8328 11.0771 47.9556 12.4181 47.7571 13.7474C47.4864 15.5537 45.8895 16.9773 44.0861 16.9808C36.2685 16.9955 28.4497 16.9955 20.6297 16.9808C18.5832 16.9808 16.9266 15.1827 16.9002 13.0391C16.8853 11.8761 16.8784 10.713 16.8945 9.54995C16.8945 9.21615 16.8039 9.13241 16.4792 9.13357C12.3494 9.14404 8.21953 9.13357 4.08968 9.14171C3.13064 9.14171 2.65915 9.66858 2.65915 10.6909C2.65915 31.7199 2.65915 52.7492 2.65915 73.779C2.65915 76.9976 2.65915 80.2154 2.65915 83.4324C2.65915 84.6199 3.11802 85.0863 4.28126 85.0863C15.1214 85.0863 25.9607 85.0809 36.7992 85.07C37.4199 85.07 37.5931 85.2596 37.5277 85.8365C37.4623 86.4133 37.7778 87.1949 37.3981 87.5555C37.0539 87.8869 36.3037 87.6392 35.7324 87.6392C28.8493 87.6439 21.9662 87.6462 15.0831 87.6462C11.5269 87.6462 7.97059 87.6462 4.41434 87.6462C1.95478 87.6462 0.556368 86.4494 0.10782 83.9791C0.0344007 83.7464 0.0722577 83.5138 0.0722577 83.2812C0.0722577 58.9825 0.0722577 34.6841 0.0722577 10.3862C0.114703 8.26709 1.4374 6.77371 3.5333 6.46667C4.38457 6.34772 5.24669 6.33093 6.10184 6.41665C6.88192 6.48993 7.66315 6.53296 8.44208 6.38874C8.5175 6.3728 8.59454 6.36616 8.67152 6.36897C10.9372 6.53296 13.2063 6.29802 15.472 6.43759C16.1959 6.48295 16.9197 6.52017 17.6413 6.38758C17.8488 6.35041 18.0603 6.3422 18.27 6.36315C20.2695 6.54808 22.2713 6.32361 24.2709 6.40037C24.6667 6.41549 24.8146 6.21195 24.903 5.87932C25.1755 4.80729 25.6628 3.80365 26.3347 2.93095C27.538 1.3864 29.0236 0.316384 31.006 0.0744666C31.082 0.0764279 31.1566 0.0540436 31.2193 0.010498H31.6782C31.7551 0.0954017 31.8572 0.063999 31.9512 0.0709774H32.5455C32.6407 0.0628359 32.7462 0.0977278 32.8254 0.010498H33.2843Z" fill="#3C3C3C"/>
<path d="M77.679 98.7536C77.5528 98.8699 77.4863 98.8606 77.3957 98.6884C76.5422 97.0683 75.6841 95.4505 75.1334 93.6873C74.7801 92.5602 75.0933 91.6205 75.9766 90.8959C76.0818 90.8203 76.166 90.7185 76.2213 90.6004C76.2765 90.4823 76.3009 90.3517 76.2921 90.2213C76.2844 86.1514 76.2844 82.0807 76.2921 78.0092C76.2921 77.3741 76.2921 77.373 75.7047 77.6044C74.304 78.1604 72.9068 78.7303 71.4992 79.2676C71.1619 79.3955 71.0403 79.556 71.0403 79.9329C71.0586 81.9671 71.0173 84.0036 71.0563 86.0355C71.077 87.1043 70.5975 87.801 69.7256 88.2778C68.3593 89.021 66.8577 89.3165 65.3526 89.5572C60.5562 90.3295 55.7289 90.4039 50.8981 90.1213C48.31 89.9689 45.7266 89.6933 43.212 88.9792C42.5084 88.7986 41.8363 88.5095 41.2193 88.122C40.515 87.6568 40.1352 87.031 40.1456 86.1448C40.1697 84.1304 40.1375 82.1148 40.1605 80.0969C40.1662 79.6316 40.0526 79.399 39.5869 79.2141C36.1694 77.8905 32.7772 76.4995 29.3494 75.2038C28.5843 74.9142 28.0313 74.3315 27.3063 74.0187C27.257 73.9977 27.234 73.8931 27.218 73.8233C26.883 72.3415 27.5621 71.0598 29.0087 70.4865C36.5518 67.4997 44.0949 64.5145 51.638 61.5309C52.5091 61.1866 53.3787 60.8416 54.2467 60.4957C55.1246 60.1384 56.1055 60.1426 56.9804 60.5074C65.4275 63.8523 73.8757 67.1927 82.3251 70.5283C83.1557 70.8552 83.6145 71.4797 83.9885 72.2264V74.0873C82.9308 75.0375 81.6058 75.4434 80.3279 75.9482C78.7654 76.5646 78.9983 76.3297 78.9948 77.8533C78.9834 81.8205 78.9948 85.7866 78.9845 89.7526C78.9735 89.9811 79.0098 90.2094 79.0912 90.4228C79.1726 90.6361 79.2973 90.8298 79.4572 90.9913C80.1248 91.7007 80.407 92.5568 80.1328 93.55C79.6568 95.2807 78.8033 96.838 77.9968 98.4186C77.9353 98.5662 77.8221 98.6855 77.679 98.7536V98.7536Z" fill="#3C3C3C"/>
<path d="M0.0160522 10.2454C0.0481503 10.2437 0.0803174 10.2437 0.112415 10.2454C0.118534 14.4674 0.124652 18.6897 0.13077 22.9124C0.13077 43.1156 0.13077 63.3192 0.13077 83.5231C0.13077 83.6778 0.119298 83.8325 0.112415 83.9884H0.0642338H0.0160522V10.2454Z" fill="#EEEEEE"/>
<path d="M32.604 0.108209H32.1302C32.097 0.0837847 32.0878 0.0593603 32.1004 0.0384252C32.113 0.01749 32.1245 0.00585938 32.1371 0.00585938H32.596C32.6304 0.0244684 32.643 0.0454035 32.6338 0.0686648C32.6247 0.0965784 32.6143 0.108209 32.604 0.108209Z" fill="#393939"/>
<path d="M31.8996 0.109358C31.8067 0.119826 31.7069 0.14774 31.6782 0.010498H31.9077C31.9467 0.0360855 31.9581 0.0593467 31.9432 0.0791188C31.9283 0.0988909 31.9145 0.109358 31.8996 0.109358Z" fill="#7F7F7F"/>
<path d="M32.604 0.108195C32.604 0.0756296 32.5972 0.0430638 32.596 0.010498H32.8254C32.7899 0.133783 32.6947 0.116337 32.604 0.108195Z" fill="#565656"/>
<path d="M31.8997 0.109358C31.9041 0.0765756 31.9068 0.0435741 31.9077 0.010498H32.1371C32.1372 0.0447345 32.1349 0.0789322 32.1302 0.112848L31.8997 0.109358Z" fill="#565656"/>
<path d="M32.3837 51.0098H18.629C17.4887 51.0098 16.8853 50.5608 16.8899 49.7199C16.8945 48.8791 17.5117 48.4476 18.6508 48.4476H46.2164C46.5032 48.4476 46.79 48.4417 47.0631 48.5557C47.319 48.6676 47.5322 48.8605 47.6708 49.1057C47.8094 49.3508 47.8659 49.6349 47.8317 49.9153C47.7284 50.5504 47.2489 50.99 46.5399 50.997C44.3236 51.0191 42.1084 51.0144 39.892 51.0168C37.3889 51.0168 34.8861 51.0168 32.3837 51.0168V51.0098Z" fill="#3C3C3C"/>
<path d="M32.4079 27.5159H46.2796C47.46 27.5159 48.1564 28.3696 47.7285 29.314C47.4658 29.8955 46.9702 30.0851 46.3668 30.0828C44.5519 30.0828 42.7371 30.0828 40.9211 30.0828H18.7943C17.506 30.0828 16.875 29.6547 16.8831 28.7848C16.8911 27.9334 17.506 27.5228 18.7656 27.5228H32.4079V27.5159Z" fill="#3C3C3C"/>
<path d="M35.5408 35.3094C31.9876 35.3094 28.4348 35.3094 24.8823 35.3094C24.0219 35.3094 23.5413 34.9861 23.391 34.3371C23.3462 34.1685 23.3371 33.9922 23.3641 33.8198C23.3911 33.6474 23.4537 33.4827 23.5478 33.3365C23.6419 33.1903 23.7654 33.0659 23.9101 32.9713C24.0549 32.8768 24.2177 32.8143 24.3879 32.7879C24.654 32.7517 24.9226 32.7385 25.1909 32.7483C32.2197 32.7483 39.2485 32.7681 46.2772 32.739C47.5667 32.739 48.1288 33.7858 47.7055 34.5999C47.4198 35.1442 46.9472 35.3245 46.3702 35.3222C45.0142 35.3222 43.6582 35.3222 42.3023 35.3222H35.5408V35.3094Z" fill="#3C3C3C"/>
<path d="M35.5764 40.5421H24.9764C23.9508 40.5421 23.3348 40.0594 23.3394 39.2627C23.344 38.466 23.9554 37.9834 24.9776 37.9834H46.0639C46.274 37.9791 46.4843 37.9865 46.6937 38.0055C47.0009 38.0308 47.288 38.1707 47.4994 38.3982C47.7108 38.6256 47.8315 38.9245 47.8382 39.2369C47.8449 39.5494 47.7372 39.8532 47.5357 40.0898C47.3343 40.3264 47.0535 40.4788 46.7476 40.5177C46.5772 40.5402 46.4054 40.5499 46.2337 40.5467C42.682 40.5467 39.1296 40.5467 35.5764 40.5467V40.5421Z" fill="#3C3C3C"/>
<path d="M35.6096 56.2517C32.058 56.2517 28.5055 56.2517 24.9523 56.2517C24.6855 56.2609 24.4189 56.2283 24.1619 56.1552C23.8902 56.056 23.6617 55.8629 23.5167 55.6097C23.3717 55.3565 23.3195 55.0595 23.3692 54.7711C23.4702 54.1396 23.9176 53.7174 24.6024 53.7034C25.9389 53.6767 27.2765 53.6848 28.6176 53.6837C34.4629 53.6837 40.3077 53.6837 46.1522 53.6837C46.2475 53.6837 46.3427 53.6837 46.4379 53.6837C47.2799 53.7197 47.8478 54.235 47.8512 54.963C47.8547 55.6911 47.2879 56.2285 46.4448 56.2424C45.2414 56.2587 44.0357 56.2529 42.8346 56.254C40.4247 56.254 38.0164 56.2533 35.6096 56.2517Z" fill="#3C3C3C"/>
<path d="M10.3911 44.5862C10.3939 44.7633 10.3604 44.939 10.2928 45.1023C10.2251 45.2656 10.1247 45.4129 9.99801 45.5348C9.87129 45.6567 9.72097 45.7506 9.55659 45.8106C9.39221 45.8705 9.21733 45.8952 9.04304 45.8831C8.86875 45.871 8.69885 45.8223 8.54408 45.7402C8.38931 45.658 8.25305 45.5442 8.14393 45.4059C8.03481 45.2676 7.95521 45.1078 7.91016 44.9366C7.86512 44.7655 7.85561 44.5868 7.88224 44.4117C7.93045 44.0949 8.09424 43.8079 8.34119 43.6077C8.58814 43.4074 8.90025 43.3085 9.21574 43.3304C9.53122 43.3523 9.82708 43.4936 10.0448 43.7261C10.2624 43.9587 10.386 44.2656 10.3911 44.5862V44.5862Z" fill="#3C3C3C"/>
<path d="M7.88227 49.7595C7.87893 49.5897 7.90883 49.4208 7.97025 49.2628C8.03166 49.1047 8.12338 48.9606 8.24008 48.8387C8.35679 48.7168 8.49617 48.6196 8.65018 48.5526C8.80418 48.4857 8.96974 48.4504 9.13729 48.4487C9.46633 48.4536 9.78091 48.5867 10.0158 48.8203C10.2508 49.0539 10.388 49.3702 10.3992 49.7037C10.4049 50.0367 10.2822 50.3589 10.0573 50.6018C9.83237 50.8446 9.52288 50.9889 9.19465 51.004C9.02718 51.0126 8.85971 50.9869 8.70223 50.9285C8.54475 50.8701 8.40048 50.7802 8.27802 50.664C8.15555 50.5479 8.0574 50.408 7.98941 50.2526C7.92142 50.0972 7.88498 49.9295 7.88227 49.7595V49.7595Z" fill="#3C3C3C"/>
<path d="M10.3889 28.7719C10.3922 28.9414 10.3623 29.11 10.3008 29.2677C10.2393 29.4254 10.1475 29.5692 10.0307 29.6906C9.91393 29.812 9.7745 29.9087 9.62053 29.975C9.46656 30.0413 9.30113 30.0759 9.13385 30.0768C8.79917 30.0768 8.4782 29.942 8.24155 29.7021C8.0049 29.4622 7.87195 29.1368 7.87195 28.7974C7.87195 28.4581 8.0049 28.1327 8.24155 27.8928C8.4782 27.6529 8.79917 27.5181 9.13385 27.5181C9.463 27.5198 9.77846 27.6519 10.0129 27.8861C10.2474 28.1204 10.3823 28.4382 10.3889 28.7719Z" fill="#3C3C3C"/>
<path d="M10.3946 60.1956C10.3946 60.5349 10.2616 60.8604 10.025 61.1003C9.78833 61.3402 9.46736 61.475 9.13269 61.475C8.79801 61.475 8.47704 61.3402 8.24039 61.1003C8.00374 60.8604 7.87079 60.5349 7.87079 60.1956C7.87079 59.8563 8.00374 59.5309 8.24039 59.291C8.47704 59.0511 8.79801 58.9163 9.13269 58.9163C9.46736 58.9163 9.78833 59.0511 10.025 59.291C10.2616 59.5309 10.3946 59.8563 10.3946 60.1956V60.1956Z" fill="#3C3C3C"/>
<path d="M9.14874 24.8338C8.89772 24.837 8.65147 24.7642 8.44146 24.6248C8.23145 24.4854 8.06724 24.2856 7.96981 24.051C7.87239 23.8165 7.84619 23.5578 7.89456 23.308C7.94292 23.0583 8.06366 22.8288 8.24134 22.649C8.41901 22.4692 8.64554 22.3472 8.89196 22.2987C9.13838 22.2501 9.39349 22.2771 9.62467 22.3763C9.85585 22.4755 10.0526 22.6424 10.1897 22.8556C10.3269 23.0687 10.3982 23.3185 10.3946 23.573C10.3898 23.9063 10.257 24.2245 10.0243 24.46C9.7916 24.6955 9.47747 24.8296 9.14874 24.8338V24.8338Z" fill="#3C3C3C"/>
<path d="M10.3923 65.4607C10.3868 65.7152 10.3065 65.9621 10.1618 66.1701C10.0171 66.378 9.81446 66.5375 9.57988 66.628C9.3453 66.7186 9.0894 66.7362 8.84491 66.6786C8.60041 66.6209 8.37843 66.4907 8.20734 66.3044C8.03625 66.1182 7.92384 65.8845 7.88446 65.6331C7.84508 65.3818 7.88054 65.1243 7.98629 64.8935C8.09204 64.6626 8.26329 64.4691 8.47813 64.3374C8.69298 64.2058 8.94166 64.1422 9.19237 64.1546C9.52081 64.1709 9.83 64.3165 10.0541 64.5605C10.2782 64.8044 10.3996 65.1274 10.3923 65.4607V65.4607Z" fill="#3C3C3C"/>
<path d="M10.3889 70.6399C10.3925 70.8095 10.3629 70.9782 10.3016 71.1362C10.2403 71.2941 10.1487 71.4381 10.032 71.5597C9.91527 71.6814 9.77587 71.7783 9.62188 71.8448C9.46789 71.9113 9.30239 71.9461 9.13501 71.9472C8.80033 71.9472 8.47936 71.8124 8.24271 71.5724C8.00606 71.3325 7.87311 71.0071 7.87311 70.6678C7.87311 70.3285 8.00606 70.0031 8.24271 69.7631C8.47936 69.5232 8.80033 69.3884 9.13501 69.3884C9.46357 69.3905 9.7784 69.5224 10.0126 69.7561C10.2467 69.9898 10.3817 70.3068 10.3889 70.6399Z" fill="#3C3C3C"/>
<path d="M10.3934 18.3229C10.3945 18.6622 10.2626 18.9881 10.0267 19.2288C9.79077 19.4694 9.47023 19.6053 9.13555 19.6064C8.80087 19.6074 8.47948 19.4737 8.24208 19.2345C8.00467 18.9953 7.8707 18.6704 7.86964 18.3311C7.86857 17.9917 8.0005 17.6659 8.2364 17.4252C8.4723 17.1845 8.79284 17.0487 9.12752 17.0476C9.46219 17.0465 9.78359 17.1803 10.021 17.4195C10.2584 17.6586 10.3924 17.9836 10.3934 18.3229V18.3229Z" fill="#3C3C3C"/>
<path d="M9.10631 32.76C9.42126 32.7805 9.7172 32.9199 9.93575 33.1507C10.1543 33.3816 10.2796 33.687 10.2869 34.0069C10.2943 34.3268 10.1831 34.6379 9.97542 34.8788C9.7677 35.1196 9.47849 35.2729 9.16482 35.3082C8.99089 35.3278 8.81483 35.3106 8.64785 35.2575C8.48086 35.2044 8.32658 35.1167 8.19483 34.9999C8.06307 34.8831 7.95672 34.7398 7.88252 34.5791C7.80832 34.4184 7.7679 34.2438 7.76383 34.0665C7.75976 33.8891 7.79212 33.7128 7.85886 33.5488C7.92561 33.3848 8.02527 33.2366 8.15152 33.1137C8.27778 32.9909 8.42786 32.896 8.59223 32.8351C8.7566 32.7742 8.93167 32.7486 9.10631 32.76Z" fill="#3C3C3C"/>
<path d="M9.1476 56.2378C8.82956 56.2172 8.53096 56.0754 8.31179 55.8409C8.09263 55.6063 7.96911 55.2963 7.96606 54.9732C7.96301 54.6502 8.08065 54.3379 8.29535 54.0991C8.51005 53.8603 8.80591 53.7128 9.12351 53.686C9.29641 53.6715 9.47042 53.6932 9.63465 53.7499C9.79889 53.8066 9.94983 53.897 10.078 54.0155C10.2063 54.134 10.309 54.2781 10.3798 54.4386C10.4507 54.5992 10.4881 54.7729 10.4897 54.9488C10.4914 55.1247 10.4573 55.299 10.3895 55.4609C10.3217 55.6228 10.2217 55.7688 10.0957 55.8898C9.96978 56.0108 9.82058 56.1041 9.65744 56.164C9.49431 56.2238 9.32075 56.249 9.1476 56.2378V56.2378Z" fill="#3C3C3C"/>
<path d="M9.12926 14.3674C8.79459 14.3657 8.47428 14.2292 8.23881 13.9881C8.00334 13.747 7.872 13.4209 7.87367 13.0816C7.87535 12.7423 8.0099 12.4175 8.24774 12.1788C8.48557 11.9401 8.80721 11.8069 9.14188 11.8086C9.3076 11.8094 9.47153 11.8434 9.62431 11.9084C9.77709 11.9735 9.91574 12.0685 10.0323 12.1879C10.1489 12.3072 10.2412 12.4488 10.3038 12.6043C10.3665 12.7598 10.3983 12.9264 10.3975 13.0944C10.3966 13.2624 10.3632 13.4286 10.299 13.5835C10.2348 13.7384 10.1412 13.8789 10.0234 13.9972C9.90564 14.1154 9.76607 14.2089 9.61265 14.2724C9.45923 14.3359 9.29498 14.3682 9.12926 14.3674V14.3674Z" fill="#3C3C3C"/>
<path d="M10.3911 75.9098C10.3885 76.2426 10.2582 76.5612 10.0277 76.798C9.79727 77.0349 9.48486 77.1715 9.15676 77.1787C8.98304 77.1965 8.80758 77.1775 8.64147 77.123C8.47536 77.0685 8.32222 76.9796 8.19173 76.862C8.06124 76.7444 7.95624 76.6006 7.88338 76.4397C7.81052 76.2789 7.77138 76.1044 7.76843 75.9274C7.76548 75.7504 7.79879 75.5748 7.86626 75.4115C7.93372 75.2482 8.03387 75.1009 8.16037 74.9789C8.28687 74.8569 8.43697 74.7628 8.60117 74.7027C8.76537 74.6425 8.9401 74.6175 9.11431 74.6293C9.28137 74.6273 9.44717 74.659 9.60207 74.7224C9.75697 74.7859 9.8979 74.8799 10.0167 74.9991C10.1355 75.1182 10.2297 75.26 10.294 75.4164C10.3583 75.5727 10.3913 75.7405 10.3911 75.9098V75.9098Z" fill="#3C3C3C"/>
<path d="M9.16367 79.8619C9.41515 79.8657 9.65977 79.9456 9.86614 80.0914C10.0725 80.2371 10.2312 80.4421 10.3219 80.6799C10.4125 80.9178 10.431 81.1777 10.375 81.4262C10.3189 81.6748 10.1909 81.9007 10.0073 82.075C9.82373 82.2493 9.59295 82.364 9.34462 82.4044C9.09628 82.4447 8.84171 82.409 8.61358 82.3016C8.38544 82.1943 8.19415 82.0202 8.06426 81.8019C7.93436 81.5835 7.87179 81.3308 7.88456 81.0761C7.89624 80.7435 8.03734 80.429 8.27702 80.2015C8.5167 79.9739 8.83547 79.8519 9.16367 79.8619V79.8619Z" fill="#3C3C3C"/>
<path d="M7.88112 39.2651C7.87743 38.9312 8.00401 38.6094 8.23328 38.3698C8.46255 38.1302 8.77593 37.9921 9.10516 37.9857C9.35622 37.978 9.60381 38.0465 9.81625 38.1824C10.0287 38.3182 10.1963 38.5153 10.2976 38.7483C10.399 38.9813 10.4294 39.2396 10.3851 39.4903C10.3408 39.7409 10.2237 39.9725 10.0488 40.1552C9.87392 40.338 9.64922 40.4637 9.40346 40.5163C9.1577 40.5689 8.90206 40.5459 8.66927 40.4503C8.43647 40.3547 8.23711 40.1908 8.0967 39.9797C7.9563 39.7685 7.88123 39.5197 7.88112 39.2651V39.2651Z" fill="#3C3C3C"/>
<path d="M32.3253 14.429H21.0301C19.9082 14.429 19.4241 13.9441 19.4241 12.8101C19.4241 11.7831 19.4436 10.7561 19.4092 9.73027C19.3943 9.28017 19.5067 9.13595 19.9736 9.14293C21.941 9.172 23.9096 9.15688 25.8781 9.15688C27.1928 9.15688 27.1985 9.15688 27.1951 7.84611C27.1882 6.28062 27.7618 4.96171 28.909 3.94636C30.5414 2.51114 32.417 2.17734 34.3982 3.04149C36.4 3.91612 37.4646 5.52696 37.5254 7.75655C37.5633 9.15223 37.5415 9.15223 38.933 9.15223C40.9016 9.15223 42.8701 9.16502 44.8387 9.14293C45.2299 9.14293 45.3251 9.25923 45.3171 9.63257C45.293 10.7177 45.309 11.8029 45.3033 12.8892C45.3033 13.9045 44.7871 14.4244 43.789 14.4256C39.9689 14.4294 36.1477 14.4306 32.3253 14.429Z" fill="#D1D1D1"/>
<path d="M30.2924 72.7229L34.4693 71.0632C41.256 68.3781 48.0424 65.6907 54.8283 63.0009C55.0614 62.8962 55.313 62.8405 55.5679 62.8369C55.8228 62.8333 56.0757 62.8819 56.3116 62.9799C63.8578 65.9807 71.4081 68.9713 78.9627 71.9518L80.8969 72.716C80.719 72.9823 80.454 72.9939 80.2361 73.08C77.3406 74.2314 74.4405 75.3689 71.5485 76.5273C71.1711 76.6785 71.0024 76.6971 70.898 76.2098C70.7122 75.3387 70.1374 74.7641 69.3161 74.4373C66.6718 73.3836 63.9243 72.7415 61.116 72.3729C55.8505 71.6808 50.6342 71.9483 45.4788 73.2684C44.2756 73.5737 43.0924 73.9552 41.9363 74.4105C41.0518 74.7595 40.4736 75.3689 40.2591 76.3122C40.1983 76.582 40.1306 76.7204 39.8083 76.5913C36.6719 75.3367 33.5294 74.088 30.3808 72.8451C30.3658 72.8392 30.3578 72.8148 30.2924 72.7229Z" fill="#D1D1D1"/>
<path d="M68.497 83.9466C67.1055 83.5006 65.6754 83.189 64.226 83.0161C60.5667 82.5487 56.8758 82.3845 53.1901 82.5253C50.1719 82.6416 47.164 82.8393 44.2077 83.5163C43.8889 83.5765 43.5752 83.6616 43.2693 83.771C42.8162 83.9547 42.6453 83.8977 42.6533 83.3418C42.682 81.346 42.6762 79.3502 42.6533 77.3543C42.6533 76.9554 42.768 76.7856 43.1385 76.6565C48.0554 74.877 53.119 74.3304 58.3089 74.6642C61.1885 74.8467 64.0374 75.3686 66.798 76.2192C68.5188 76.7495 68.5279 76.7356 68.5302 78.5674C68.5302 80.2531 68.5302 81.9387 68.5302 83.6244C68.5257 83.7116 68.5096 83.8035 68.497 83.9466Z" fill="#D1D1D1"/>
<path d="M67.398 86.3808C62.9481 88.2173 47.1594 88.0557 43.8349 86.3564C47.0344 84.6165 64.1996 84.6176 67.398 86.3808Z" fill="#D1D1D1"/>
<path d="M32.3562 9.14063C32.1891 9.13959 32.0239 9.10491 31.8701 9.03861C31.7164 8.97231 31.5771 8.87572 31.4605 8.75443C31.3439 8.63314 31.2521 8.48957 31.1906 8.33205C31.1292 8.17454 31.0991 8.00621 31.1023 7.83684C31.1046 7.49753 31.2398 7.17304 31.478 6.93474C31.7163 6.69645 32.0382 6.56388 32.3728 6.56619C32.7075 6.56851 33.0276 6.70551 33.2626 6.94708C33.4977 7.18864 33.6284 7.51497 33.6261 7.85429C33.6261 8.02331 33.5933 8.19068 33.5294 8.34682C33.4656 8.50296 33.3721 8.64482 33.2541 8.76428C33.1362 8.88375 32.9962 8.97847 32.8421 9.04305C32.688 9.10763 32.5229 9.14079 32.3562 9.14063Z" fill="#3C3C3C"/>
</svg>
