<svg width="72" height="102" viewBox="0 0 72 102" fill="none" xmlns="http://www.w3.org/2000/svg">
<path d="M5.64667 88.2891V87.7852C5.81601 87.4962 5.72964 87.1821 5.72964 86.8798C5.72964 66.3193 5.72964 45.7588 5.72964 25.1983C5.72964 24.896 5.81093 24.5819 5.64667 24.293V23.7891C5.88882 23.0282 5.95994 22.2337 6.40361 21.5097C7.88193 19.0859 10.0715 17.9454 12.8503 17.8547C14.8197 17.7926 16.7942 17.8547 18.767 17.8396C19.7237 17.8396 19.7237 17.8279 19.8185 16.8654C20.0404 14.6045 21.1326 13.5782 23.4271 13.4842C24.2738 13.4506 25.1205 13.4842 25.9672 13.4741C27.0374 13.4741 27.0611 13.4539 27.0848 12.4058C27.0949 11.7621 27.235 11.1269 27.4967 10.5378C27.7585 9.94868 28.1367 9.41759 28.6089 8.9759C29.3031 8.28891 30.1668 8.15789 31.0473 8H40.8689C43.624 8.52742 44.7078 9.74016 44.8382 12.5486C44.8704 13.2524 45.1549 13.4775 45.817 13.4607C46.6907 13.4371 47.5679 13.4304 48.4417 13.4607C50.7616 13.5564 51.8284 14.539 52.1079 16.8049C52.2281 17.8027 52.2281 17.8127 53.2441 17.8127C55.1644 17.8127 57.083 17.7724 59.0016 17.8262C61.9277 17.9102 64.1867 19.1464 65.6566 21.7298C66.2543 22.7829 66.3339 23.9134 66.3339 25.0589C66.3486 45.7179 66.352 66.3781 66.3441 87.0394C66.3441 90.0628 64.8979 92.1809 62.2055 93.5213C61.4502 93.8959 60.6171 93.8304 59.8347 94H11.9122C9.88858 93.8572 8.30019 92.9233 7.02677 91.3881C6.27152 90.4727 5.92607 89.401 5.64667 88.2891Z" fill="#3C3C3C"/>
<path d="M63.4027 56.0474V86.868C63.4027 89.2968 61.5908 91.1495 59.1421 91.1512C43.7053 91.1612 28.2685 91.1612 12.8316 91.1512C10.3119 91.1512 8.51353 89.322 8.51353 86.8293C8.51353 66.3125 8.50619 45.794 8.49152 25.2738C8.49152 22.9743 10.4338 20.7857 12.8943 20.9066C15.0618 21.0074 17.2395 20.947 19.4121 20.9066C19.9404 20.9066 20.0725 21.0377 20.0607 21.555C20.0234 23.0936 20.0471 24.6339 20.0471 26.1725C20.0471 28.2805 21.2511 29.4865 23.3492 29.4865H48.4993C50.6769 29.4865 51.8623 28.3107 51.864 26.1456C51.864 24.6053 51.8792 23.065 51.8538 21.5265C51.8538 21.0746 51.9402 20.9016 52.4431 20.9083C54.7851 20.9352 57.1287 20.9083 59.4707 20.9251C61.5975 20.9503 63.401 22.8618 63.401 25.0588C63.401 35.2198 63.401 45.3808 63.401 55.5418L63.4027 56.0474Z" fill="#D1D1D1"/>
<path d="M35.8836 26.6563C31.8195 26.6563 27.7554 26.6462 23.6913 26.668C23.1105 26.668 22.87 26.6042 22.8802 25.9239C22.9276 23.0147 22.9123 20.1038 22.8802 17.1895C22.8802 16.6856 22.9868 16.5177 23.5236 16.5361C25.1307 16.5765 26.7411 16.5513 28.3464 16.5513C29.6875 16.5513 30.1397 16.1162 30.1702 14.7624C30.1888 13.9528 30.1702 13.1398 30.1702 12.3285C30.1803 11.3829 30.6494 10.8554 31.5994 10.8487C34.5052 10.8274 37.411 10.8274 40.3169 10.8487C41.1094 10.8487 41.6716 11.5206 41.7105 12.3134C41.7495 13.3431 41.6072 14.3777 41.7986 15.404C41.951 16.217 42.459 16.5546 43.2617 16.5529C44.9246 16.5529 46.5891 16.5765 48.2537 16.5361C48.8278 16.5227 49.0124 16.647 49.0056 17.255C48.9706 20.1665 48.9706 23.078 49.0056 25.9894C49.0056 26.5454 48.8498 26.6731 48.3079 26.6714C44.1778 26.6445 40.0307 26.6563 35.8836 26.6563Z" fill="#D1D1D1"/>
<path d="M28.7528 40.9219C24.9444 40.9219 21.1326 40.9219 17.3259 40.9219C16.2032 40.9219 15.6884 40.3004 15.8137 39.2237C15.9102 38.3973 16.5655 38.2881 17.1684 38.1336C17.4477 38.0846 17.7321 38.07 18.0151 38.0899C25.1814 38.0899 32.3501 38.0899 39.521 38.0899C39.9127 38.0772 40.304 38.1248 40.6809 38.231C41.3922 38.4527 41.846 39.0373 41.697 39.7175C41.5479 40.3978 41.1991 40.932 40.3541 40.9286C36.4881 40.9185 32.6221 40.9286 28.7579 40.9286L28.7528 40.9219Z" fill="#3C3C3C"/>
<path d="M28.6597 66.7773C24.963 66.7773 21.2681 66.7773 17.5714 66.7773C16.2946 66.7773 15.7544 66.2734 15.8137 65.2068C15.856 64.4459 16.3217 63.9537 17.0956 63.9537C24.8264 63.9448 32.5595 63.9448 40.2949 63.9537C40.6487 63.9401 40.994 64.0631 41.2583 64.2967C41.5226 64.5304 41.6853 64.8566 41.7122 65.2068C41.7867 65.9492 41.3735 66.4985 40.5861 66.6782C40.2577 66.7468 39.9227 66.7795 39.587 66.7756C35.9429 66.7846 32.3004 66.7851 28.6597 66.7773Z" fill="#3C3C3C"/>
<path d="M28.6766 53.8438C24.9241 53.8438 21.1727 53.8438 17.4224 53.8438C16.2675 53.8438 15.7849 53.3583 15.7968 52.3203C15.8052 51.6031 16.1998 51.257 16.8399 51.1092C17.0826 51.05 17.3316 51.019 17.5816 51.0168C25.0324 51.0168 32.4793 51.0168 39.9223 51.0168C40.5556 51.0168 41.1415 51.1327 41.5022 51.7173C41.6501 51.9412 41.7257 52.2045 41.7191 52.4722C41.7124 52.7398 41.6238 52.9991 41.465 53.2156C41.0823 53.7917 40.4743 53.8505 39.8461 53.8505C36.1252 53.8438 32.402 53.8415 28.6766 53.8438Z" fill="#3C3C3C"/>
<path d="M28.7562 76.8673C32.5945 76.8673 36.4294 76.8673 40.261 76.8673C40.9688 76.8673 41.4362 77.1495 41.636 77.8364C41.7318 78.1157 41.7323 78.4185 41.6375 78.6981C41.5426 78.9776 41.3576 79.2185 41.111 79.3834C40.6809 79.7076 40.1543 79.622 39.6598 79.6236C34.7535 79.6236 29.8478 79.6236 24.9427 79.6236C22.4331 79.6236 19.9235 79.632 17.4139 79.6236C16.3488 79.6236 15.8899 79.2575 15.8137 78.463C15.7273 77.4434 16.2015 76.8874 17.2531 76.879C19.7931 76.8589 22.3332 76.869 24.8733 76.8673H28.768H28.7562Z" fill="#3C3C3C"/>
<path d="M50.2722 40.2937C51.8183 38.3873 53.3203 36.5497 54.7986 34.7054C55.476 33.8656 56.3565 33.627 57.0271 34.1427C57.6977 34.6584 57.7044 35.5402 57.0017 36.422C55.3241 38.5385 53.6403 40.6504 51.9503 42.7578C50.9529 43.9941 50.0876 44.2376 48.865 42.8888C48.1707 42.1195 47.3799 41.4342 46.6636 40.6801C46.2538 40.245 45.9456 39.7058 46.1759 39.0961C46.26 38.8436 46.4173 38.6212 46.6282 38.4569C46.839 38.2926 47.094 38.1936 47.3613 38.1723C47.8947 38.1185 48.313 38.3402 48.6737 38.6947C49.2003 39.2053 49.71 39.7277 50.2722 40.2937Z" fill="#3C3C3C"/>
<path d="M50.257 66.144C51.7641 64.2778 53.2407 62.4621 54.7021 60.6329C55.0001 60.26 55.271 59.8384 55.774 59.7595C56.3328 59.6738 56.9339 59.6234 57.298 60.2096C57.4856 60.4915 57.5764 60.8259 57.5569 61.1631C57.5374 61.5002 57.4086 61.8221 57.1896 62.0808C55.3834 64.3495 53.5636 66.6048 51.7302 68.8466C50.8835 69.8746 50.1418 69.888 49.1901 68.9591C48.3547 68.1428 47.5255 67.3197 46.7026 66.49C46.0083 65.7896 45.9439 64.938 46.518 64.345C47.092 63.7521 47.9421 63.8142 48.6533 64.513C49.1851 65.0404 49.7083 65.5863 50.257 66.144Z" fill="#3C3C3C"/>
<path d="M50.2265 79.0944C51.7759 77.1527 53.2069 75.337 54.6665 73.5515C54.9392 73.2155 55.1983 72.8006 55.6606 72.6931C56.2431 72.5588 56.8646 72.4765 57.254 73.0828C57.6249 73.659 57.6841 74.2905 57.2422 74.8549C56.0212 76.4103 54.7732 77.9455 53.5371 79.4908C52.9274 80.2517 52.3094 81.0025 51.7116 81.7769C51.058 82.6167 50.108 82.7259 49.3409 81.9868C48.4106 81.091 47.494 80.1801 46.5908 79.254C45.9897 78.6443 45.9524 77.9102 46.457 77.3324C46.9617 76.7546 47.8117 76.6773 48.4705 77.2636C49.0767 77.8027 49.6016 78.4326 50.2265 79.0944Z" fill="#3C3C3C"/>
<path d="M50.2722 53.239C51.8166 51.2939 53.2949 49.4445 54.7597 47.5834C55.371 46.8058 56.492 46.542 57.1152 47.0594C57.6909 47.5381 57.6452 48.561 57.0322 49.3202C55.3151 51.4478 53.6031 53.5755 51.8962 55.7031C50.8547 57.0048 50.2163 57.0468 49.0394 55.8861C48.2029 55.0547 47.3342 54.2501 46.5417 53.3784C45.7492 52.5066 46.1319 51.3527 47.2851 51.0621C47.8439 50.9227 48.2452 51.2468 48.6229 51.5744C48.9192 51.8314 49.1868 52.122 49.4696 52.4025C49.7524 52.683 49.9708 52.9265 50.2722 53.239Z" fill="#3C3C3C"/>
</svg>
