<svg width="89" height="70" viewBox="0 0 89 70" fill="none" xmlns="http://www.w3.org/2000/svg">
<g clip-path="url(#clip0_64_14)">
<path fill-rule="evenodd" clip-rule="evenodd" d="M0.338989 0H88.339V70H0.338989V0Z" fill="white"/>
<path fill-rule="evenodd" clip-rule="evenodd" d="M23.6712 27.3567H26.3455V39.9447H23.6712V27.3567ZM13.2329 31.9016C13.2329 31.6038 12.9759 31.4415 12.6801 31.4415C12.3861 31.4415 12.1217 31.5991 12.1217 31.9016V37.9637C12.1217 38.2666 12.3861 38.4242 12.6801 38.4242C12.9754 38.4242 13.2329 38.2597 13.2329 37.9637V35.9776H15.905V37.8083C15.905 39.2943 14.4364 40.0682 12.6677 40.0682C10.9763 40.0682 9.44962 39.3193 9.44962 37.8083V32.0559C9.44962 30.5488 10.9763 29.7971 12.6677 29.7971C14.4062 29.7971 15.905 30.5721 15.905 32.0559V33.6959H13.2329V31.9016ZM19.23 32.1747C19.23 31.8722 19.4934 31.7145 19.7874 31.7145C20.0828 31.7145 20.3412 31.8776 20.3412 32.1747V39.9461H23.0156V31.6198C23.0156 30.2627 21.9103 29.7953 21.0666 29.7953C20.1243 29.7953 19.4619 30.3371 19.2788 30.6124H19.2355V27.3563H16.5611V39.9458H19.23V32.1747ZM30.7822 37.7828C30.7822 38.0792 30.5238 38.2433 30.2284 38.2433C29.9353 38.2433 29.671 38.0857 29.671 37.7828V29.9144H26.9975V38.2702C26.9975 39.3782 27.958 40.0682 28.9889 40.0682C30.033 40.0682 30.6 39.4668 30.7607 39.246H30.821L30.8684 39.9461H33.4552V29.9144H30.7822V37.7828ZM36.7806 39.9461H34.1076V29.9144H36.7555L36.7824 30.6138H36.8358C37.0321 30.3059 37.6681 29.7956 38.6323 29.7956C39.6312 29.7956 40.2726 30.4076 40.41 30.7671H40.4479C40.6474 30.401 41.3473 29.7956 42.3599 29.7956C43.383 29.7956 44.3636 30.348 44.3636 31.7131V39.9465H41.6893V32.0755C41.6893 31.7723 41.4277 31.6143 41.1332 31.6143C40.8378 31.6143 40.5771 31.7774 40.5771 32.0755V39.9461H37.889V32.0788C37.889 31.7756 37.6229 31.6176 37.3289 31.6176C37.0335 31.6176 36.7801 31.781 36.7801 32.0788V39.9461H36.7806ZM49.4549 29.7953C48.5597 29.7945 47.9159 30.397 47.7475 30.6171H47.6904V27.3567H45.0165V39.9461H47.6603L47.6904 39.246H47.7475C47.8812 39.5162 48.4547 40.0645 49.4353 40.066C50.5675 40.0667 51.4888 39.2906 51.4888 38.1177V31.6198C51.4888 30.4911 50.5287 29.7953 49.4549 29.7953ZM48.8048 37.7865C48.8048 38.0835 48.5464 38.2469 48.2501 38.2469C47.9557 38.2469 47.6918 38.0886 47.6918 37.7865V32.0817C47.6918 31.7795 47.9557 31.6216 48.2501 31.6216C48.546 31.6216 48.8048 31.7854 48.8048 32.0817V37.7865ZM54.8147 37.9695C54.8147 38.2716 55.0794 38.4292 55.3739 38.4292C55.6684 38.4292 55.9268 38.2669 55.9268 37.9695V35.9776H58.5993V37.8068C58.5993 39.3197 57.0352 40.0682 55.3634 40.0682C53.6701 40.0682 52.1384 39.3197 52.1384 37.8068V32.0592C52.1384 30.5514 53.6688 29.7971 55.3611 29.7971C57.0992 29.7971 58.5998 30.5688 58.5998 32.0592V35.301H54.8156V37.9695H54.8147ZM55.9268 33.7711V31.9034C55.9268 31.6067 55.6684 31.4436 55.3739 31.4436C55.0794 31.4436 54.8147 31.6005 54.8147 31.9034L54.8165 33.7711H55.9268ZM62.4904 31.6198C62.1977 31.6198 61.9311 31.7774 61.9311 32.0806V39.9461H59.2554V29.9144H61.8777L61.9293 30.6127H61.9882C62.2407 30.3335 62.8862 29.7956 63.7796 29.7956C64.816 29.7956 65.719 30.4638 65.719 31.525V35.2905H63.0433V32.0141C63.0433 31.7737 62.7552 31.6201 62.4849 31.6201H62.4904V31.6198ZM76.1481 37.9695C76.1481 38.2716 76.4147 38.4292 76.7083 38.4292C77.0032 38.4292 77.2611 38.2669 77.2611 37.9695V35.9776H79.9342V37.8068C79.9342 39.3197 78.3655 40.0682 76.6964 40.0682C75.004 40.0682 73.4737 39.3197 73.4737 37.8068V32.0592C73.4737 30.5514 75.0013 29.7971 76.6946 29.7971C78.4317 29.7971 79.9342 30.5688 79.9342 32.0592V35.301H76.1481V37.9695ZM77.2607 33.7711V31.9034C77.2607 31.6067 77.0032 31.4436 76.7078 31.4436C76.4143 31.4436 76.1477 31.6005 76.1477 31.9034L76.1504 33.7711H77.2607ZM83.8165 31.6198C83.5207 31.6198 83.2555 31.7774 83.2555 32.0806V39.9461H80.5788V29.9144H83.2002L83.2536 30.6127H83.3116C83.565 30.3335 84.2114 29.7956 85.1049 29.7956C86.1412 29.7956 87.0452 30.4638 87.0452 31.525V35.2905H84.3667V32.0141C84.3667 31.7737 84.0786 31.6201 83.8101 31.6201H83.8165V31.6198ZM70.1515 37.1578C70.1515 37.4542 69.8954 37.6176 69.5986 37.6176C69.306 37.6176 69.0403 37.46 69.0403 37.1578V32.0835C69.0403 31.7817 69.306 31.6252 69.5986 31.6252C69.8954 31.6252 70.1515 31.7872 70.1515 32.0835V37.1578ZM70.1515 40.6808C70.1515 40.9771 69.8949 41.1398 69.5986 41.1398C69.306 41.1398 69.0403 40.9822 69.0403 40.6808V39.8673H66.3705V40.4197C66.3705 41.9878 67.7305 42.6858 69.5904 42.6858C71.4353 42.6858 72.8273 41.9878 72.8273 40.4197V29.9144H70.1917L70.1515 30.6175H70.0871C69.9479 30.3879 69.3211 29.7956 68.3245 29.7956C67.3607 29.7956 66.3709 30.385 66.3709 31.4745V37.4662C66.3709 38.613 67.2973 39.2834 68.3395 39.2834C69.332 39.2834 69.9091 38.7557 70.073 38.5473H70.1515V40.6808ZM4.64321 37.8068C4.64321 38.1104 4.90846 38.268 5.20292 38.268C5.49784 38.268 5.75442 38.1042 5.75442 37.8068V36.6175C5.75442 35.6686 5.49876 35.3232 4.61308 34.6608C3.85797 34.0954 3.47676 33.8049 2.98872 33.4388C2.36418 32.9696 1.64468 32.3156 1.64468 31.0932V29.5854C1.64377 27.9305 3.37541 27.3146 5.19973 27.3146C7.01811 27.3146 8.73559 27.9439 8.73559 29.5741V31.5184H5.75487V29.6319C5.75487 29.3348 5.49739 29.1717 5.20201 29.1717C4.90754 29.1717 4.64367 29.3297 4.64367 29.6319V30.5379C4.64367 31.3223 4.95228 31.6673 5.76994 32.2883C6.09864 32.5385 6.8428 33.1145 7.41575 33.559C8.44022 34.3576 8.79449 35.0773 8.79449 36.0677V37.7531C8.79449 39.5049 7.0213 40.1208 5.19927 40.1208C3.35395 40.1208 1.63281 39.5053 1.63281 37.8362V35.4227H4.64321V37.8068Z" fill="#234B8D"/>
</g>
<defs>
<clipPath id="clip0_64_14">
<rect width="88" height="70" fill="white" transform="translate(0.338989)"/>
</clipPath>
</defs>
</svg>
